# xmcd
#
# Track frame offsets: 
#        150
#        21520
#        34369
#        52167
#        71889
#        85095
#        105549
#        120904
#        138865
#        159478
#        172764
#        189377
#        205088
#
# Disc length: 2893 seconds
#
# Revision: 0
# Processed by: cddbd v1.5.2PL0 Copyright (c) Steve Scherf et al.
# Submitted via: ExactAudioCopy v0.99pb5
#
DISCID=ac0b4b0d
DTITLE=Willie Nelson - American Classics
DYEAR=2009
DGENRE=Country
TTITLE0=The Nearness Of You
TTITLE1=Fly Me To The Moon
TTITLE2=Come Rain Or Shine
TTITLE3=If I Had You (Featuring Diana Krall)
TTITLE4=Ain't Misbehavin'
TTITLE5=I Miss You So
TTITLE6=Because Of You
TTITLE7=Baby, It's Cold Outside (featuring Norah Johns)
TTITLE8=Angel Eyes
TTITLE9=On The Street Where You Live
TTITLE10=Since I Fell For You
TTITLE11=Always On My Mind
TTITLE12=My Buddy
EXTD=
EXTT0=
EXTT1=
EXTT2=
EXTT3=
EXTT4=
EXTT5=
EXTT6=
EXTT7=
EXTT8=
EXTT9=
EXTT10=
EXTT11=
EXTT12=
PLAYORDER=
